<svg width="356" height="356" viewBox="0 0 356 356" fill="none" xmlns="http://www.w3.org/2000/svg">
<path d="M159.544 10.3923C170.682 3.96154 184.405 3.96152 195.544 10.3923L313.301 78.3795C324.439 84.8103 331.301 96.6949 331.301 109.556V245.531C331.301 258.393 324.439 270.277 313.301 276.708L195.544 344.695C184.405 351.126 170.682 351.126 159.544 344.695L41.7864 276.708C30.6479 270.277 23.7863 258.393 23.7863 245.531V109.556C23.7863 96.6949 30.6479 84.8103 41.7863 78.3795L159.544 10.3923Z" fill="url(#paint0_linear_39_9)"/>
<path d="M178 85L101 271L178 226.714L255 271L178 85Z" fill="white"/>
<defs>
<linearGradient id="paint0_linear_39_9" x1="177.544" y1="0" x2="177.544" y2="355.087" gradientUnits="userSpaceOnUse">
<stop stop-color="#5900FF"/>
<stop offset="1" stop-color="#A108D3"/>
</linearGradient>
</defs>
</svg>
